<?xml version="1.0" encoding="iso-8859-1"?>
<!-- Generator: Adobe Illustrator 19.0.0, SVG Export Plug-In . SVG Version: 6.00 Build 0)  -->
<svg version="1.1" id="Capa_1" xmlns="http://www.w3.org/2000/svg" xmlns:xlink="http://www.w3.org/1999/xlink" x="0px" y="0px"
	 viewBox="0 0 511.999 511.999" style="enable-background:new 0 0 511.999 511.999;" xml:space="preserve">
<path style="fill:#2B96F5;" d="M408.006,60.534c-2.74-3.796-7.137-6.044-11.818-6.044h-80.285H193.987h-83.145
	c-4.81,0-9.31,2.373-12.028,6.342L7.596,194.069l245.775,262.503c0.599,0.639,1.41,0.947,2.217,0.933
	c0.086-0.001,0.171-0.016,0.257-0.025c0.681-0.071,1.344-0.363,1.853-0.904l246.706-262.507L408.006,60.534z"/>
<path style="fill:#49D5FF;" d="M193.987,54.49h-83.145c-4.81,0-9.31,2.373-12.028,6.342L7.596,194.069h147.62L193.987,54.49z"/>
<path style="fill:#2B96F5;" d="M504.403,194.069L408.006,60.534c-2.74-3.796-7.137-6.044-11.818-6.044h-80.285l40.881,139.579
	H504.403z"/>
<path style="fill:#2BB7FF;" d="M254.877,456.994l-99.661-262.925H7.596l245.775,262.503c0.599,0.639,1.41,0.947,2.217,0.933
	C255.292,457.491,255.002,457.324,254.877,456.994z"/>
<path style="fill:#2B84E9;" d="M504.403,194.069h-147.62L256.375,456.995c-0.1,0.262-0.303,0.423-0.53,0.485
	c0.681-0.071,1.344-0.363,1.853-0.904L504.403,194.069z"/>
<polygon style="fill:#2BB7FF;" points="356.784,194.069 315.903,54.49 193.987,54.49 155.216,194.069 "/>
<path style="fill:#2B96F5;" d="M256.375,456.995l100.409-262.926H155.216l99.661,262.925c0.125,0.33,0.415,0.497,0.711,0.511
	c0.086-0.001,0.171-0.016,0.257-0.025C256.072,457.417,256.275,457.256,256.375,456.995z"/>
<path d="M511.619,196.438c0.082-0.249,0.149-0.501,0.205-0.756c0.017-0.077,0.035-0.153,0.048-0.23
	c0.056-0.302,0.098-0.606,0.117-0.911c0.002-0.036,0.001-0.072,0.002-0.107c0.013-0.272,0.009-0.544-0.007-0.815
	c-0.005-0.088-0.012-0.176-0.021-0.265c-0.025-0.261-0.061-0.52-0.113-0.777c-0.009-0.045-0.014-0.091-0.024-0.136
	c-0.066-0.303-0.155-0.602-0.258-0.897c-0.022-0.061-0.047-0.121-0.07-0.181c-0.095-0.25-0.203-0.495-0.326-0.735
	c-0.027-0.053-0.052-0.107-0.08-0.16c-0.153-0.285-0.323-0.562-0.515-0.829c-0.004-0.006-0.007-0.012-0.011-0.018L414.17,56.084
	c-4.158-5.758-10.88-9.196-17.982-9.196h-80.285h-66.214c-4.199,0-7.601,3.403-7.601,7.601s3.403,7.601,7.601,7.601h60.52
	l36.428,124.377H220.974c-4.199,0-7.601,3.403-7.601,7.601s3.403,7.601,7.601,7.601H345.75l-89.926,235.839L166.235,201.67h17.915
	c4.199,0,7.601-3.403,7.601-7.601s-3.403-7.601-7.601-7.601h-18.933l34.548-124.377h19.688c4.199,0,7.601-3.403,7.601-7.601
	s-3.403-7.601-7.601-7.601h-25.466h-83.145c-7.322,0-14.162,3.607-18.299,9.649L1.396,189.67c-0.007,0.01-0.013,0.02-0.02,0.029
	l-0.051,0.075c-0.017,0.025-0.028,0.051-0.045,0.076c-0.158,0.237-0.3,0.481-0.43,0.73c-0.032,0.062-0.064,0.125-0.095,0.188
	c-0.132,0.274-0.252,0.553-0.349,0.839c-0.003,0.01-0.008,0.019-0.011,0.028c-0.099,0.294-0.175,0.593-0.237,0.895
	c-0.016,0.078-0.028,0.156-0.042,0.235c-0.041,0.237-0.071,0.475-0.089,0.715c-0.006,0.075-0.015,0.15-0.018,0.225
	c-0.014,0.302-0.013,0.604,0.009,0.905c0.004,0.053,0.012,0.105,0.017,0.157c0.024,0.259,0.062,0.517,0.112,0.774
	c0.015,0.075,0.03,0.149,0.047,0.223c0.14,0.612,0.355,1.209,0.649,1.78c0.012,0.023,0.019,0.047,0.031,0.069
	c0.019,0.036,0.044,0.067,0.063,0.102c0.124,0.227,0.261,0.448,0.411,0.665c0.042,0.061,0.082,0.123,0.125,0.183
	c0.177,0.241,0.366,0.476,0.576,0.7l0.031,0.034c0.001,0.001,0.003,0.003,0.004,0.004l245.739,262.466
	c1.988,2.123,4.796,3.341,7.704,3.344c0,0,0.006,0,0.009,0c2.905,0,5.712-1.214,7.7-3.331l204.02-217.087
	c2.875-3.059,2.726-7.87-0.333-10.745c-3.059-2.875-7.871-2.726-10.745,0.334L276.811,425.139l85.21-223.468h124.808l-10.269,10.926
	c-2.875,3.059-2.726,7.87,0.333,10.745c1.468,1.379,3.338,2.062,5.205,2.062c2.024,0,4.044-0.804,5.54-2.396l22.305-23.733
	c0.003-0.004,0.007-0.008,0.01-0.012c0.026-0.028,0.049-0.06,0.075-0.089c0.19-0.209,0.364-0.426,0.526-0.649
	c0.05-0.069,0.097-0.14,0.145-0.21c0.15-0.223,0.288-0.45,0.412-0.684c0.018-0.035,0.043-0.065,0.06-0.1
	c0.007-0.014,0.011-0.029,0.018-0.043c0.146-0.289,0.271-0.584,0.377-0.884C511.586,196.548,511.601,196.493,511.619,196.438z
	 M149.973,201.67l85.237,224.383L25.126,201.67H149.973z M105.087,65.125c1.301-1.9,3.452-3.034,5.754-3.034h73.145l-34.548,124.377
	H22.012L105.087,65.125z M401.843,64.983l87.698,121.485H362.478L326.049,62.091h70.139
	C398.422,62.091,400.536,63.172,401.843,64.983z"/>
<g>
</g>
<g>
</g>
<g>
</g>
<g>
</g>
<g>
</g>
<g>
</g>
<g>
</g>
<g>
</g>
<g>
</g>
<g>
</g>
<g>
</g>
<g>
</g>
<g>
</g>
<g>
</g>
<g>
</g>
</svg>
